<?xml version="1.0" encoding="iso-8859-1"?>
<!-- Generator: Adobe Illustrator 19.0.0, SVG Export Plug-In . SVG Version: 6.00 Build 0)  -->
<svg version="1.1" id="Layer_1" xmlns="http://www.w3.org/2000/svg" xmlns:xlink="http://www.w3.org/1999/xlink" x="0px" y="0px"
	 viewBox="0 0 512 512" style="enable-background:new 0 0 512 512;" xml:space="preserve">
<g>
	<g>
		<g>
			<path d="M21.333,21.333h213.333v96c0,5.891,4.776,10.667,10.667,10.667h96v74.667h21.333v-85.333
				c-0.047-1.094-0.267-2.174-0.651-3.2c-0.085-0.267-0.064-0.576-0.171-0.843c-0.559-1.353-1.39-2.577-2.443-3.595L252.885,3.136
				c-2.005-2.001-4.719-3.128-7.552-3.136H10.667C4.776,0,0,4.776,0,10.667v448c0,5.891,4.776,10.667,10.667,10.667H224V448H21.333
				V21.333z M256,36.427l70.219,70.24H256V36.427z"/>
			<path d="M373.333,234.667c-76.583,0-138.667,62.083-138.667,138.667S296.75,512,373.333,512S512,449.917,512,373.333
				C511.912,296.786,449.88,234.755,373.333,234.667z M373.333,490.667C308.532,490.667,256,438.135,256,373.333
				S308.532,256,373.333,256s117.333,52.532,117.333,117.333C490.596,438.106,438.106,490.596,373.333,490.667z"/>
			<path d="M380.971,307.723c-4.036-4.218-10.728-4.365-14.946-0.329c-0.112,0.107-0.222,0.217-0.329,0.329l-46.443,46.411
				c-4.093,4.237-3.976,10.99,0.261,15.083c4.134,3.993,10.688,3.993,14.821,0l28.331-28.299v90.56
				c0,5.891,4.776,10.667,10.667,10.667S384,437.368,384,431.477v-90.56l28.331,28.331c4.174,4.165,10.934,4.158,15.099-0.016
				c4.165-4.174,4.158-10.934-0.016-15.099L380.971,307.723z"/>
		</g>
	</g>
</g>
<g>
</g>
<g>
</g>
<g>
</g>
<g>
</g>
<g>
</g>
<g>
</g>
<g>
</g>
<g>
</g>
<g>
</g>
<g>
</g>
<g>
</g>
<g>
</g>
<g>
</g>
<g>
</g>
<g>
</g>
</svg>
